<svg xmlns="http://www.w3.org/2000/svg" viewBox="0 0 24 24">
  <path fill="#18BCF2" d="M13,2.05V5.08C16.39,5.57 19,8.47 19,12C19,12.9 18.82,13.75 18.5,14.54L21.12,16.07C21.68,14.83 22,13.45 22,12C22,6.82 18.05,2.55 13,2.05M12,19C8.13,19 5,15.87 5,12C5,8.47 7.61,5.57 11,5.08V2.05C5.94,2.55 2,6.81 2,12C2,17.52 6.47,22 12,22C14.3,22 16.4,21.2 18.07,19.93L15.5,18.4C14.42,18.78 13.23,19 12,19M12.5,7V12.25L17,14.92L16.25,16.15L11,13V7H12.5M21,6.5L19.5,5L16,8.5L17.5,10M9.5,10L11,8.5L7.5,5L6,6.5"/>
</svg>
